<svg width="1440" height="385" viewBox="0 0 1440 385" fill="none" xmlns="http://www.w3.org/2000/svg">
<circle opacity="0.2" cx="1439.5" cy="27.5" r="125" stroke="#6DB0FF" stroke-width="3"/>
<path opacity="0.2" d="M86.5 236.5C147.245 236.5 196.5 285.966 196.5 347C196.5 408.034 147.245 457.5 86.5 457.5C25.755 457.5 -23.5 408.034 -23.5 347C-23.5 285.966 25.755 236.5 86.5 236.5Z" stroke="#6DB0FF" stroke-width="3"/>
<circle opacity="0.2" cx="1439.5" cy="188.5" r="55" stroke="#6DB0FF" stroke-width="3"/>
<path opacity="0.2" d="M156.5 305.5C188.544 305.5 214.5 331.256 214.5 363C214.5 394.744 188.544 420.5 156.5 420.5C124.456 420.5 98.5 394.744 98.5 363C98.5 331.256 124.456 305.5 156.5 305.5Z" stroke="#6DB0FF" stroke-width="3"/>
</svg>
