<svg width="713" height="367" viewBox="0 0 713 367" fill="none" xmlns="http://www.w3.org/2000/svg">
<g clip-path="url(#clip0_2619_1368)">
<path d="M35.795 342.894L66.432 294.293L35.7808 348.188L35.7643 353.726C33.5786 353.7 31.415 353.616 29.2734 353.475L31.7723 282.336L31.7395 281.786L31.7958 281.681L32.0337 274.959L0 221.693L32.0667 269.925L32.1627 271.349L34.0504 217.601L6.5116 162.491L34.2656 208.157L35.5566 96.7526L35.5625 96.3818L35.567 96.7467L36.1955 184.581L62.5104 149.437L36.1723 192.147L36.0502 240.254L60.4664 193.792L36.0367 247.327L35.9691 274.077L71.436 209.385L35.9412 283.409L35.795 342.894Z" fill="#D0CDE1"/>
<path d="M465.822 137.756H457.209V198.886H465.822V137.756Z" fill="#3F3D56"/>
<path d="M147.107 7.66373L143.868 15.6414L462.601 144.959L465.841 136.981L147.107 7.66373Z" fill="#3F3D56"/>
<path d="M712.999 350.985C699.658 373.264 -0.703592 371.393 0.35765 350.983C13.6981 328.706 714.06 330.576 712.999 350.985Z" fill="#D0CDE1"/>
<path d="M625.167 260.876H550.232V290.149H625.167V260.876Z" fill="#3F3D56"/>
<path d="M618.277 286.706H248.77V319.423H618.277V286.706Z" fill="#3F3D56"/>
<path d="M557.553 303.064H468.837V191.568H535.159L557.553 247.801V303.064Z" fill="#D0CDE1"/>
<path d="M520.516 198.455H482.618V236.338H520.516V198.455Z" fill="white"/>
<path d="M548.94 236.769H524.823V198.886H535.159L548.94 236.769Z" fill="white"/>
<path d="M492.954 257.863H484.341V274.221H492.954V257.863Z" fill="#3F3D56"/>
<path d="M532.145 222.993H532.575C534.745 222.993 536.827 223.855 538.361 225.389C539.896 226.923 540.758 229.003 540.758 231.172V231.172C540.758 233.342 539.896 235.422 538.361 236.956C536.827 238.49 534.745 239.352 532.575 239.352H532.145V222.993Z" fill="#3F3D56"/>
<path d="M211.732 286.706H212.163C214.333 286.706 216.415 287.567 217.949 289.101C219.484 290.635 220.346 292.715 220.346 294.885V294.885C220.346 297.054 219.484 299.134 217.949 300.668C216.415 302.202 214.333 303.064 212.163 303.064H211.732V286.706Z" fill="#3F3D56"/>
<path d="M592.007 286.582C605.132 286.582 616.938 292.938 625.13 303.064H641.963L625.598 257.496L549.371 242.468L551.524 303.064H558.883C567.075 292.938 578.881 286.582 592.007 286.582Z" fill="#D0CDE1"/>
<path d="M592.868 351.279C613.561 351.279 630.335 334.511 630.335 313.826C630.335 293.142 613.561 276.374 592.868 276.374C572.175 276.374 555.4 293.142 555.4 313.826C555.4 334.511 572.175 351.279 592.868 351.279Z" fill="#3F3D56"/>
<path d="M592.867 333.538C603.758 333.538 612.587 324.713 612.587 313.826C612.587 302.94 603.758 294.114 592.867 294.114C581.976 294.114 573.147 302.94 573.147 313.826C573.147 324.713 581.976 333.538 592.867 333.538Z" fill="#D0CDE1"/>
<path d="M254.368 350.848C272.444 350.848 287.098 336.2 287.098 318.131C287.098 300.062 272.444 285.414 254.368 285.414C236.292 285.414 221.638 300.062 221.638 318.131C221.638 336.2 236.292 350.848 254.368 350.848Z" fill="#3F3D56"/>
<path d="M254.368 335.351C263.882 335.351 271.594 327.641 271.594 318.131C271.594 308.621 263.882 300.912 254.368 300.912C244.854 300.912 237.142 308.621 237.142 318.131C237.142 327.641 244.854 335.351 254.368 335.351Z" fill="#D0CDE1"/>
<path d="M471.421 176.07H453.333V306.508H471.421V176.07Z" fill="#3F3D56"/>
<path d="M471.421 282.831H211.302V290.58H471.421V282.831Z" fill="#3F3D56"/>
<path d="M355.776 234.123L72.0977 311.269L74.1327 318.746L357.811 241.6L355.776 234.123Z" fill="#3F3D56"/>
<path d="M336.412 243.522L331.554 247.091L361.396 287.683L366.254 284.114L336.412 243.522Z" fill="#3F3D56"/>
<path d="M537.312 238.491H528.699V241.935H537.312V238.491Z" fill="#3F3D56"/>
<path d="M461.516 264.32H348.682C348.475 264.32 348.275 264.245 348.119 264.11C347.962 263.975 347.86 263.788 347.83 263.583C347.8 263.378 347.846 263.169 347.957 262.995C348.069 262.821 348.239 262.693 348.438 262.634L458.687 229.917C458.81 229.88 458.939 229.872 459.066 229.892C459.193 229.912 459.314 229.96 459.419 230.032C459.525 230.105 459.613 230.2 459.678 230.311C459.742 230.422 459.78 230.546 459.79 230.674L462.374 263.391C462.384 263.51 462.368 263.629 462.329 263.741C462.29 263.853 462.229 263.956 462.148 264.043C462.067 264.131 461.97 264.2 461.861 264.248C461.752 264.295 461.634 264.32 461.516 264.32V264.32ZM354.61 262.598H460.584L458.157 231.87L354.61 262.598Z" fill="#3F3D56"/>
<path d="M155.971 226.437H155.963L131.236 226.204C131.116 226.203 130.996 226.177 130.887 226.126C130.777 226.076 130.679 226.004 130.599 225.913C130.519 225.823 130.459 225.717 130.423 225.602C130.386 225.487 130.375 225.365 130.388 225.245L143.236 113.191C143.26 112.981 143.361 112.787 143.518 112.646C143.676 112.506 143.88 112.428 144.092 112.428H144.096C144.308 112.429 144.512 112.508 144.669 112.65C144.827 112.792 144.926 112.987 144.948 113.198L156.827 225.486C156.84 225.606 156.827 225.727 156.79 225.842C156.753 225.957 156.692 226.062 156.611 226.152C156.53 226.242 156.431 226.313 156.321 226.363C156.211 226.412 156.091 226.437 155.971 226.437V226.437ZM132.209 224.491L155.013 224.706L144.057 121.151L132.209 224.491Z" fill="#3F3D56"/>
<path d="M631.229 273.461L630.826 273.613C628.796 274.381 626.544 274.311 624.566 273.419C622.588 272.527 621.045 270.885 620.278 268.856V268.856C619.51 266.827 619.58 264.577 620.472 262.599C621.365 260.622 623.007 259.08 625.036 258.313L625.439 258.16L631.229 273.461Z" fill="#3F3D56"/>
<path d="M107.309 278.482L83.2822 285.204L84.3497 289.017L108.376 282.294L107.309 278.482Z" fill="#3F3D56"/>
<path d="M281.29 230.831L276.653 233.362L88.2554 286.074L85.4583 282.601C80.6117 276.657 77.5137 269.483 76.5104 261.881C75.799 256.205 76.3193 250.222 80.2808 246.58L73.0859 188.574L177.28 159.281L226.699 180.537C226.699 180.537 245.629 174.883 259.559 184.86C263.969 188.02 267.879 192.747 270.524 199.724L272.801 206.301L281.29 230.831Z" fill="#4F8BCE"/>
<path d="M239.644 265.604C252.986 265.604 263.802 254.792 263.802 241.455C263.802 228.119 252.986 217.307 239.644 217.307C226.302 217.307 215.486 228.119 215.486 241.455C215.486 254.792 226.302 265.604 239.644 265.604Z" fill="#3F3D56"/>
<path d="M239.644 254.165C246.666 254.165 252.359 248.475 252.359 241.455C252.359 234.436 246.666 228.746 239.644 228.746C232.622 228.746 226.93 234.436 226.93 241.455C226.93 248.475 232.622 254.165 239.644 254.165Z" fill="#D0CDE1"/>
<path d="M124.851 297.722C138.193 297.722 149.009 286.91 149.009 273.574C149.009 260.237 138.193 249.425 124.851 249.425C111.509 249.425 100.693 260.237 100.693 273.574C100.693 286.91 111.509 297.722 124.851 297.722Z" fill="#3F3D56"/>
<path d="M124.851 286.283C131.873 286.283 137.566 280.593 137.566 273.574C137.566 266.554 131.873 260.864 124.851 260.864C117.829 260.864 112.137 266.554 112.137 273.574C112.137 280.593 117.829 286.283 124.851 286.283Z" fill="#D0CDE1"/>
<path d="M209.614 181.206L134.864 202.121L128.566 179.629L176.238 166.29L209.614 181.206Z" fill="white"/>
<path d="M119.414 182.19L89.667 190.512L95.9651 213.004L125.712 204.681L119.414 182.19Z" fill="white"/>
<path d="M143.375 217.827L139.562 218.894L141.59 226.137L145.403 225.07L143.375 217.827Z" fill="#3F3D56"/>
<path d="M204.487 193.74L203.42 189.928L196.174 191.955L197.241 195.768L204.487 193.74Z" fill="#3F3D56"/>
<path d="M194.851 176.951L195.27 176.833C197.384 176.242 199.646 176.514 201.56 177.59C203.473 178.666 204.88 180.458 205.472 182.571C206.063 184.684 205.791 186.945 204.715 188.858C203.638 190.77 201.846 192.177 199.732 192.768L199.313 192.886L194.851 176.951Z" fill="#3F3D56"/>
<path d="M272.801 206.301C270.004 207.42 266.902 207.516 264.041 206.573C261.18 205.63 258.744 203.708 257.161 201.146C255.579 198.583 254.952 195.545 255.39 192.566C255.829 189.587 257.305 186.858 259.559 184.86C263.969 188.02 267.879 192.747 270.524 199.723L272.801 206.301Z" fill="#3F3D56"/>
<path d="M147.995 7.74878H139.382V133.451H147.995V7.74878Z" fill="#3F3D56"/>
<path d="M143.688 24.1074C150.348 24.1074 155.747 18.7108 155.747 12.0537C155.747 5.39662 150.348 0 143.688 0C137.029 0 131.63 5.39662 131.63 12.0537C131.63 18.7108 137.029 24.1074 143.688 24.1074Z" fill="#3F3D56"/>
<path d="M461.516 151.532C468.175 151.532 473.574 146.135 473.574 139.478C473.574 132.821 468.175 127.425 461.516 127.425C454.856 127.425 449.457 132.821 449.457 139.478C449.457 146.135 454.856 151.532 461.516 151.532Z" fill="#3F3D56"/>
</g>
<defs>
<clipPath id="clip0_2619_1368">
<rect width="713" height="367" fill="white"/>
</clipPath>
</defs>
</svg>
