<svg width="30" height="30" viewBox="0 0 30 30" fill="none" xmlns="http://www.w3.org/2000/svg">
<path d="M15 30C6.71573 30 0 23.2843 0 15C0 6.71573 6.71573 0 15 0C23.2843 0 30 6.71573 30 15C29.9909 23.2805 23.2805 29.9909 15 30ZM15 3C8.37258 3 3 8.37258 3 15C3 21.6274 8.37258 27 15 27C21.6274 27 27 21.6274 27 15C26.9926 8.37567 21.6243 3.00744 15 3ZM15 24C12.63 24.0401 10.3899 22.92 9 21C8.32511 20.0974 7.81711 19.0814 7.5 18H22.5C22.5 18 22.5 18 22.5 18.012C22.178 19.0878 21.6703 20.099 21 21C19.6099 22.9198 17.3699 24.0399 15 24ZM9.75 15C8.50736 15 7.5 13.9926 7.5 12.75C7.5 11.5074 8.50736 10.5 9.75 10.5C10.9926 10.5 12 11.5074 12 12.75C12 13.9926 10.9926 15 9.75 15ZM20.2395 14.979C19.0027 14.979 18 13.9763 18 12.7395C18 11.5027 19.0027 10.5 20.2395 10.5C21.4763 10.5 22.479 11.5027 22.479 12.7395C22.4773 13.9757 21.4757 14.9773 20.2395 14.979Z" fill="#3570B5"/>
</svg>
