<svg width="31" height="31" viewBox="0 0 31 31" fill="none" xmlns="http://www.w3.org/2000/svg">
<path d="M13.1251 30H4.37558C2.64982 29.9983 1.25123 28.5998 1.24958 26.874V12.324C0.0243952 11.4546 -0.357067 9.80628 0.361578 8.48699C1.71158 6.07499 3.08858 3.69749 4.44308 1.41899C4.98633 0.529489 5.95685 -0.00931028 6.99908 -0.000128643C7.63436 0.00632539 8.25231 0.207944 8.76908 0.57749L8.80508 0.59999C9.42308 0.95999 15.3931 4.51349 20.1916 7.36799L24.4501 9.89999L24.6451 10.0155C27.9721 11.982 28.7206 12.429 28.7626 12.4575C29.9873 13.3246 30.364 14.9742 29.6371 16.287C28.3126 18.6525 26.9371 21.03 25.5556 23.355C25.0194 24.2349 24.066 24.7746 23.0356 24.7815C22.8337 24.7816 22.6324 24.7589 22.4356 24.714C22.2616 24.8175 21.3016 25.434 20.0851 26.214C17.9206 27.6015 14.9626 29.499 14.6206 29.6745C14.1591 29.912 13.6435 30.0242 13.1251 30ZM3.75008 16.545V26.874C3.75008 27.2194 4.03012 27.4995 4.37558 27.4995H10.1101C7.93058 23.82 5.79158 20.133 3.75008 16.545ZM5.78708 15.045C6.38708 16.0755 12.8611 27.243 12.9151 27.318C13.0004 27.4288 13.1323 27.4936 13.2721 27.4935C13.3458 27.4935 13.4184 27.4756 13.4836 27.441C13.6861 27.327 19.7746 23.415 19.8346 23.376C19.3636 23.0985 15.9556 21.0675 12.3466 18.918L5.75708 15L5.76758 15.0165L5.78258 15.042V15.051L5.78708 15.045ZM6.49808 2.84999C5.28608 4.79999 2.57408 9.64199 2.53808 9.73049C2.44915 9.94297 2.52804 10.1886 2.72408 10.3095C2.92358 10.428 22.7551 22.2435 22.9441 22.2735C22.968 22.2753 22.9921 22.2753 23.0161 22.2735C23.1791 22.2741 23.3304 22.1893 23.4151 22.05C24.6361 19.9995 27.4486 15.0645 27.4561 15.0495C27.5429 14.8361 27.4638 14.5912 27.2686 14.469C27.0781 14.355 7.28408 2.59199 7.15658 2.53649C7.09863 2.51209 7.03645 2.49935 6.97358 2.49899C6.81562 2.49985 6.6686 2.57983 6.58208 2.71199L6.57158 2.72999L6.55958 2.74799L6.54158 2.77799V2.78549L6.51908 2.82149L6.49658 2.84999H6.49808ZM8.52758 11.085C7.1484 11.0842 6.03063 9.96617 6.03009 8.58699C6.02954 7.2078 7.14641 6.08892 8.52559 6.08699C9.90477 6.08506 11.0248 7.20081 11.0281 8.57999C11.0264 9.96029 9.90788 11.0788 8.52758 11.0805V11.085Z" fill="#3570B5"/>
</svg>
